<svg width="180" height="179" viewBox="0 0 180 179" fill="none" xmlns="http://www.w3.org/2000/svg">
<mask id="path-1-inside-1_3169_22" fill="white">
<path d="M179.142 11.4771V4.39445C179.142 2.95215 177.973 1.78285 176.531 1.78285H169.452C165.125 1.78285 161.19 3.85959 158.763 7.3163C136.2 2.46082 113.076 0 89.9999 0C66.9238 0 43.7997 2.46082 21.2369 7.3163C18.8102 3.85959 14.8751 1.78285 10.5482 1.78285H3.46902C2.02637 1.78285 0.857422 2.95215 0.857422 4.39445V11.4771C0.857422 16.0467 3.21517 20.2099 7.00582 22.5725C6.27805 27.5029 5.66868 32.4827 5.19093 37.4033C5.05165 38.839 6.1022 40.1155 7.53788 40.2548C8.97252 40.3927 10.2505 39.3432 10.3894 37.9078C10.809 33.5879 11.3358 29.222 11.9529 24.8847L13.3224 25.4836C13.6633 25.6326 14.0181 25.703 14.3677 25.703C15.3741 25.703 16.333 25.118 16.7617 24.1374C17.3397 22.8159 16.7373 21.2762 15.4159 20.6981L10.9117 18.7279C10.9016 18.7234 10.8912 18.7206 10.8811 18.7164C7.96514 17.4852 6.08061 14.6437 6.08061 11.4771V7.00604H10.5482C13.5595 7.00604 16.2543 8.68234 17.5922 11.3817L19.5328 15.8183C19.9614 16.7992 20.9204 17.3838 21.9267 17.3838C22.2763 17.3838 22.6312 17.3131 22.9721 17.1645C24.2935 16.5864 24.8959 15.0463 24.3179 13.7252L23.6305 12.153C45.4227 7.55761 67.7334 5.22319 89.9999 5.22319C94.8028 5.22319 99.6078 5.33775 104.409 5.55365C98.5921 8.68338 91.9875 10.0912 85.2764 9.56436L80.7427 9.20849C75.3078 8.78193 69.9408 10.7187 66.0307 14.5243C63.0127 17.4615 61.0676 21.3145 60.4819 25.4651C55.5442 28.2495 51.6753 32.4256 49.2816 37.5767C47.6381 41.1117 46.7696 45.0413 46.7696 48.9403V59.8292C44.79 61.6333 43.5459 64.231 43.5459 67.1138C43.5459 75.3066 48.2325 82.587 55.585 85.9971V86.7374C55.585 93.2855 58.4111 99.5136 63.3393 103.826L69.7008 109.391V122.683L67.9646 121.586C65.3631 119.941 61.9232 120.203 59.6006 122.223L55.8409 125.493L55.8357 125.494C43.9174 124.335 33.7127 123.102 23.634 121.051L24.3186 119.486C24.8966 118.165 24.2942 116.625 22.9728 116.047C21.6513 115.469 20.1112 116.072 19.5335 117.393L17.5897 121.837C16.2509 124.533 13.5578 126.207 10.5485 126.207H6.08061V121.735C6.08061 118.569 7.96514 115.727 10.8814 114.495C10.8849 114.494 10.8873 114.492 10.8908 114.491C10.8978 114.488 10.9051 114.486 10.9121 114.483L15.4162 112.512C16.7377 111.934 17.3401 110.395 16.762 109.073C16.184 107.751 14.6435 107.149 13.3227 107.727L11.9504 108.328C9.20269 89.0304 8.3628 69.4228 9.46106 49.9908C9.5422 48.551 8.4408 47.3176 7.00094 47.2361C5.56874 47.1564 4.32736 48.256 4.24623 49.6962C3.09922 70.0012 4.02755 90.4935 7.00547 110.64C3.21517 113.003 0.857422 117.166 0.857422 121.735V128.818C0.857422 130.26 2.02637 131.429 3.46902 131.429H10.5482C14.8768 131.429 18.8127 129.351 21.2397 125.893C27.0991 127.128 32.9592 128.078 39.1208 128.886C28.3043 132.81 20.7853 143.373 20.7853 155.31V158.631H10.8675C5.34797 158.631 0.857422 163.122 0.857422 168.642V175.673C0.857422 177.116 2.02637 178.285 3.46902 178.285C4.91166 178.285 6.08061 177.116 6.08061 175.673V168.642C6.08061 166.002 8.22804 163.855 10.8675 163.855H113.342C120.048 172.62 130.612 178.285 142.476 178.285C150.881 178.285 159.095 175.368 165.602 170.071C167.695 168.368 169.58 166.441 171.237 164.343C172.849 165.135 173.919 166.799 173.919 168.642V175.673C173.919 177.116 175.088 178.285 176.53 178.285C177.973 178.285 179.142 177.116 179.142 175.673V168.642C179.142 165.045 177.191 161.772 174.185 160.004C176.075 156.75 177.473 153.214 178.284 149.518C178.593 148.11 177.701 146.717 176.293 146.408C174.882 146.099 173.491 146.99 173.182 148.399C171.671 155.284 167.808 161.542 162.305 166.021C156.726 170.561 149.684 173.062 142.476 173.062C125.138 173.062 111.032 158.956 111.032 141.618C111.032 124.28 125.138 110.175 142.476 110.175C150.091 110.175 157.439 112.932 163.165 117.941C168.838 122.903 172.544 129.721 173.601 137.139C173.804 138.567 175.129 139.558 176.554 139.357C177.982 139.153 178.975 137.831 178.771 136.403C177.81 129.648 174.959 123.326 170.613 118.123C170.617 118.101 170.622 118.081 170.626 118.059C173.765 97.7036 178.184 58.5259 172.991 22.5739C176.784 20.2103 179.142 16.046 179.142 11.4771ZM65.5648 26.9496C65.8454 23.6562 67.3044 20.5731 69.6733 18.2672C72.5067 15.5101 76.3928 14.1061 80.3339 14.4157L84.8676 14.7715C92.6515 15.3826 100.307 13.7283 107.039 10.0668C104.854 18.5406 98.5966 25.5536 90.3662 28.5649C89.0127 29.0632 88.3194 30.5644 88.8177 31.9179C89.2063 32.974 90.2054 33.6283 91.2688 33.6283C91.5683 33.6283 91.8729 33.5764 92.1707 33.4671C101.339 30.0926 108.511 22.6063 111.511 13.3366L112.312 16.1679C114.158 22.6979 113.701 29.7287 111.024 35.9652C108.833 41.0727 104.914 45.3067 99.9901 47.8862C93.5311 51.3478 85.6553 51.5062 79.0604 48.3117C75.5237 46.6518 72.4263 44.1133 70.1034 40.9714L69.1796 39.7217C66.46 36.0432 65.1765 31.5073 65.5648 26.9496ZM55.585 80.0179C51.3612 77.1584 48.7691 72.3882 48.7691 67.1135C48.7691 64.5583 50.8482 62.4791 53.4034 62.4791H55.5853L55.585 80.0179ZM58.1966 57.2563H53.4031C52.9239 57.2563 52.4535 57.2925 51.9925 57.3587V48.9399C51.9925 45.7963 52.6927 42.6282 54.0177 39.7777C55.5119 36.5623 57.7174 33.817 60.4847 31.6992C60.9781 35.43 62.3448 39.0103 64.4999 42.147L59.6901 56.1887C59.4717 56.8273 58.8714 57.2563 58.1966 57.2563ZM60.8082 86.737V61.9582C62.5705 61.2249 63.9867 59.7645 64.6319 57.8813L68.3665 46.9788C70.7956 49.4873 73.6726 51.5529 76.8406 53.0401C80.6894 54.8909 84.9 55.823 89.1001 55.8206C93.6934 55.822 98.2908 54.7108 102.414 52.5126C105.755 50.7618 108.714 48.3835 111.141 45.5441L115.367 57.881C116.013 59.7645 117.429 61.2249 119.191 61.9582V86.737C119.191 91.7788 117.015 96.5744 113.22 99.8942L100.741 110.813C98.7745 112.533 96.2521 113.481 93.6391 113.481H86.359C83.7453 113.481 81.2232 112.534 79.2568 110.813L66.7776 99.8942C62.9842 96.5744 60.8082 91.7788 60.8082 86.737ZM106.111 146.332L104.619 147.573C103.512 148.493 101.899 148.37 100.946 147.291L93.4963 138.861L107.743 129.856C106.489 133.55 105.808 137.506 105.808 141.618C105.809 143.215 105.912 144.788 106.111 146.332ZM86.8973 158.631H26.0085V155.31C26.0085 144.531 33.5062 135.13 43.8363 132.956C43.8363 132.956 52.0935 131.473 52.3226 131.428C52.2937 131.718 52.2804 132.011 52.2836 132.306C52.308 134.652 53.3568 136.86 55.1619 138.364L58.1705 140.868C59.2795 141.79 60.9252 141.639 61.8483 140.531C62.7707 139.422 62.6203 137.776 61.5116 136.853L58.5041 134.35C57.8693 133.821 57.5148 133.076 57.5064 132.251C57.4981 131.43 57.8348 130.68 58.456 130.141L63.028 126.164C63.6235 125.645 64.5058 125.578 65.1734 126L85.5208 138.861L78.0705 147.291C77.1178 148.369 75.5055 148.491 74.3982 147.57L70.8844 144.648C69.7754 143.727 68.1287 143.878 67.2066 144.987C66.2845 146.096 66.4356 147.743 67.5451 148.665L71.0575 151.585C72.5374 152.817 74.322 153.421 76.0961 153.421C78.2676 153.421 80.4233 152.516 81.984 150.75L86.897 145.191L86.8973 158.631ZM74.9237 125.984V113.961L75.8182 114.744C78.737 117.298 82.4809 118.704 86.3597 118.704H93.6398C97.4868 118.704 101.2 117.319 104.109 114.804V125.974L89.5075 135.203L74.9237 125.984ZM92.1205 158.631V145.191L97.0321 150.75C98.5931 152.517 100.75 153.423 102.923 153.423C104.45 153.423 105.985 152.972 107.326 152.061C108.008 154.353 108.909 156.551 110.003 158.631H92.1205ZM173.919 11.4771C173.919 14.6403 172.037 17.4803 169.123 18.7147C169.111 18.7199 169.099 18.7234 169.086 18.7286L164.582 20.6988C163.261 21.2768 162.658 22.8166 163.236 24.1381C163.665 25.1187 164.624 25.7037 165.63 25.7037C165.98 25.7037 166.335 25.633 166.676 25.4843L168.035 24.8896C171.375 49.6346 170.653 81.5114 166.021 113.523C159.43 107.994 151.103 104.951 142.476 104.951C129.988 104.951 118.94 111.228 112.316 120.79C112.263 120.814 109.387 122.642 109.332 122.673C109.332 122.673 109.329 110.273 109.327 110.241L116.66 103.826C121.588 99.514 124.415 93.2855 124.415 86.7374V85.9971C131.767 82.5867 136.454 75.3066 136.454 67.1138C136.454 64.231 135.21 61.6337 133.231 59.8296V48.9413C133.231 48.1867 133.197 47.4092 133.13 46.6299C133.007 45.1928 131.744 44.1269 130.306 44.2502C128.869 44.3728 127.803 45.6371 127.926 47.0745C127.98 47.7065 128.007 48.3347 128.007 48.9417V57.359C127.546 57.2925 127.076 57.2566 126.596 57.2566H121.803C121.128 57.2566 120.528 56.8276 120.309 56.189L114.811 40.1385C115.175 39.4487 115.515 38.7449 115.824 38.0252C116.84 35.6556 117.58 33.1882 118.049 30.6748C119.377 31.5293 120.605 32.5224 121.719 33.6478C122.686 34.6242 123.555 35.6866 124.304 36.8061C124.807 37.5593 125.635 37.9667 126.477 37.9667C126.976 37.9667 127.48 37.8239 127.926 37.5258C129.125 36.7243 129.448 35.1026 128.646 33.9034C127.713 32.5078 126.631 31.1852 125.431 29.9735C123.443 27.9646 121.159 26.2949 118.639 24.9937C118.714 21.5505 118.283 18.0935 117.337 14.7479L114.92 6.20028C128.848 7.28426 142.709 9.2736 156.368 12.1537L155.68 13.7262C155.102 15.0477 155.704 16.5875 157.026 17.1655C157.367 17.3145 157.721 17.3849 158.071 17.3849C159.077 17.3849 160.036 16.7999 160.465 15.8193L162.399 11.397C163.735 8.68895 166.434 7.00709 169.451 7.00709H173.919V11.4771ZM124.415 80.0179V62.4795H126.597C129.152 62.4795 131.231 64.5583 131.231 67.1138C131.231 72.3882 128.639 77.1584 124.415 80.0179Z"/>
</mask>
<path d="M179.142 11.4771V4.39445C179.142 2.95215 177.973 1.78285 176.531 1.78285H169.452C165.125 1.78285 161.19 3.85959 158.763 7.3163C136.2 2.46082 113.076 0 89.9999 0C66.9238 0 43.7997 2.46082 21.2369 7.3163C18.8102 3.85959 14.8751 1.78285 10.5482 1.78285H3.46902C2.02637 1.78285 0.857422 2.95215 0.857422 4.39445V11.4771C0.857422 16.0467 3.21517 20.2099 7.00582 22.5725C6.27805 27.5029 5.66868 32.4827 5.19093 37.4033C5.05165 38.839 6.1022 40.1155 7.53788 40.2548C8.97252 40.3927 10.2505 39.3432 10.3894 37.9078C10.809 33.5879 11.3358 29.222 11.9529 24.8847L13.3224 25.4836C13.6633 25.6326 14.0181 25.703 14.3677 25.703C15.3741 25.703 16.333 25.118 16.7617 24.1374C17.3397 22.8159 16.7373 21.2762 15.4159 20.6981L10.9117 18.7279C10.9016 18.7234 10.8912 18.7206 10.8811 18.7164C7.96514 17.4852 6.08061 14.6437 6.08061 11.4771V7.00604H10.5482C13.5595 7.00604 16.2543 8.68234 17.5922 11.3817L19.5328 15.8183C19.9614 16.7992 20.9204 17.3838 21.9267 17.3838C22.2763 17.3838 22.6312 17.3131 22.9721 17.1645C24.2935 16.5864 24.8959 15.0463 24.3179 13.7252L23.6305 12.153C45.4227 7.55761 67.7334 5.22319 89.9999 5.22319C94.8028 5.22319 99.6078 5.33775 104.409 5.55365C98.5921 8.68338 91.9875 10.0912 85.2764 9.56436L80.7427 9.20849C75.3078 8.78193 69.9408 10.7187 66.0307 14.5243C63.0127 17.4615 61.0676 21.3145 60.4819 25.4651C55.5442 28.2495 51.6753 32.4256 49.2816 37.5767C47.6381 41.1117 46.7696 45.0413 46.7696 48.9403V59.8292C44.79 61.6333 43.5459 64.231 43.5459 67.1138C43.5459 75.3066 48.2325 82.587 55.585 85.9971V86.7374C55.585 93.2855 58.4111 99.5136 63.3393 103.826L69.7008 109.391V122.683L67.9646 121.586C65.3631 119.941 61.9232 120.203 59.6006 122.223L55.8409 125.493L55.8357 125.494C43.9174 124.335 33.7127 123.102 23.634 121.051L24.3186 119.486C24.8966 118.165 24.2942 116.625 22.9728 116.047C21.6513 115.469 20.1112 116.072 19.5335 117.393L17.5897 121.837C16.2509 124.533 13.5578 126.207 10.5485 126.207H6.08061V121.735C6.08061 118.569 7.96514 115.727 10.8814 114.495C10.8849 114.494 10.8873 114.492 10.8908 114.491C10.8978 114.488 10.9051 114.486 10.9121 114.483L15.4162 112.512C16.7377 111.934 17.3401 110.395 16.762 109.073C16.184 107.751 14.6435 107.149 13.3227 107.727L11.9504 108.328C9.20269 89.0304 8.3628 69.4228 9.46106 49.9908C9.5422 48.551 8.4408 47.3176 7.00094 47.2361C5.56874 47.1564 4.32736 48.256 4.24623 49.6962C3.09922 70.0012 4.02755 90.4935 7.00547 110.64C3.21517 113.003 0.857422 117.166 0.857422 121.735V128.818C0.857422 130.26 2.02637 131.429 3.46902 131.429H10.5482C14.8768 131.429 18.8127 129.351 21.2397 125.893C27.0991 127.128 32.9592 128.078 39.1208 128.886C28.3043 132.81 20.7853 143.373 20.7853 155.31V158.631H10.8675C5.34797 158.631 0.857422 163.122 0.857422 168.642V175.673C0.857422 177.116 2.02637 178.285 3.46902 178.285C4.91166 178.285 6.08061 177.116 6.08061 175.673V168.642C6.08061 166.002 8.22804 163.855 10.8675 163.855H113.342C120.048 172.62 130.612 178.285 142.476 178.285C150.881 178.285 159.095 175.368 165.602 170.071C167.695 168.368 169.58 166.441 171.237 164.343C172.849 165.135 173.919 166.799 173.919 168.642V175.673C173.919 177.116 175.088 178.285 176.53 178.285C177.973 178.285 179.142 177.116 179.142 175.673V168.642C179.142 165.045 177.191 161.772 174.185 160.004C176.075 156.75 177.473 153.214 178.284 149.518C178.593 148.11 177.701 146.717 176.293 146.408C174.882 146.099 173.491 146.99 173.182 148.399C171.671 155.284 167.808 161.542 162.305 166.021C156.726 170.561 149.684 173.062 142.476 173.062C125.138 173.062 111.032 158.956 111.032 141.618C111.032 124.28 125.138 110.175 142.476 110.175C150.091 110.175 157.439 112.932 163.165 117.941C168.838 122.903 172.544 129.721 173.601 137.139C173.804 138.567 175.129 139.558 176.554 139.357C177.982 139.153 178.975 137.831 178.771 136.403C177.81 129.648 174.959 123.326 170.613 118.123C170.617 118.101 170.622 118.081 170.626 118.059C173.765 97.7036 178.184 58.5259 172.991 22.5739C176.784 20.2103 179.142 16.046 179.142 11.4771ZM65.5648 26.9496C65.8454 23.6562 67.3044 20.5731 69.6733 18.2672C72.5067 15.5101 76.3928 14.1061 80.3339 14.4157L84.8676 14.7715C92.6515 15.3826 100.307 13.7283 107.039 10.0668C104.854 18.5406 98.5966 25.5536 90.3662 28.5649C89.0127 29.0632 88.3194 30.5644 88.8177 31.9179C89.2063 32.974 90.2054 33.6283 91.2688 33.6283C91.5683 33.6283 91.8729 33.5764 92.1707 33.4671C101.339 30.0926 108.511 22.6063 111.511 13.3366L112.312 16.1679C114.158 22.6979 113.701 29.7287 111.024 35.9652C108.833 41.0727 104.914 45.3067 99.9901 47.8862C93.5311 51.3478 85.6553 51.5062 79.0604 48.3117C75.5237 46.6518 72.4263 44.1133 70.1034 40.9714L69.1796 39.7217C66.46 36.0432 65.1765 31.5073 65.5648 26.9496ZM55.585 80.0179C51.3612 77.1584 48.7691 72.3882 48.7691 67.1135C48.7691 64.5583 50.8482 62.4791 53.4034 62.4791H55.5853L55.585 80.0179ZM58.1966 57.2563H53.4031C52.9239 57.2563 52.4535 57.2925 51.9925 57.3587V48.9399C51.9925 45.7963 52.6927 42.6282 54.0177 39.7777C55.5119 36.5623 57.7174 33.817 60.4847 31.6992C60.9781 35.43 62.3448 39.0103 64.4999 42.147L59.6901 56.1887C59.4717 56.8273 58.8714 57.2563 58.1966 57.2563ZM60.8082 86.737V61.9582C62.5705 61.2249 63.9867 59.7645 64.6319 57.8813L68.3665 46.9788C70.7956 49.4873 73.6726 51.5529 76.8406 53.0401C80.6894 54.8909 84.9 55.823 89.1001 55.8206C93.6934 55.822 98.2908 54.7108 102.414 52.5126C105.755 50.7618 108.714 48.3835 111.141 45.5441L115.367 57.881C116.013 59.7645 117.429 61.2249 119.191 61.9582V86.737C119.191 91.7788 117.015 96.5744 113.22 99.8942L100.741 110.813C98.7745 112.533 96.2521 113.481 93.6391 113.481H86.359C83.7453 113.481 81.2232 112.534 79.2568 110.813L66.7776 99.8942C62.9842 96.5744 60.8082 91.7788 60.8082 86.737ZM106.111 146.332L104.619 147.573C103.512 148.493 101.899 148.37 100.946 147.291L93.4963 138.861L107.743 129.856C106.489 133.55 105.808 137.506 105.808 141.618C105.809 143.215 105.912 144.788 106.111 146.332ZM86.8973 158.631H26.0085V155.31C26.0085 144.531 33.5062 135.13 43.8363 132.956C43.8363 132.956 52.0935 131.473 52.3226 131.428C52.2937 131.718 52.2804 132.011 52.2836 132.306C52.308 134.652 53.3568 136.86 55.1619 138.364L58.1705 140.868C59.2795 141.79 60.9252 141.639 61.8483 140.531C62.7707 139.422 62.6203 137.776 61.5116 136.853L58.5041 134.35C57.8693 133.821 57.5148 133.076 57.5064 132.251C57.4981 131.43 57.8348 130.68 58.456 130.141L63.028 126.164C63.6235 125.645 64.5058 125.578 65.1734 126L85.5208 138.861L78.0705 147.291C77.1178 148.369 75.5055 148.491 74.3982 147.57L70.8844 144.648C69.7754 143.727 68.1287 143.878 67.2066 144.987C66.2845 146.096 66.4356 147.743 67.5451 148.665L71.0575 151.585C72.5374 152.817 74.322 153.421 76.0961 153.421C78.2676 153.421 80.4233 152.516 81.984 150.75L86.897 145.191L86.8973 158.631ZM74.9237 125.984V113.961L75.8182 114.744C78.737 117.298 82.4809 118.704 86.3597 118.704H93.6398C97.4868 118.704 101.2 117.319 104.109 114.804V125.974L89.5075 135.203L74.9237 125.984ZM92.1205 158.631V145.191L97.0321 150.75C98.5931 152.517 100.75 153.423 102.923 153.423C104.45 153.423 105.985 152.972 107.326 152.061C108.008 154.353 108.909 156.551 110.003 158.631H92.1205ZM173.919 11.4771C173.919 14.6403 172.037 17.4803 169.123 18.7147C169.111 18.7199 169.099 18.7234 169.086 18.7286L164.582 20.6988C163.261 21.2768 162.658 22.8166 163.236 24.1381C163.665 25.1187 164.624 25.7037 165.63 25.7037C165.98 25.7037 166.335 25.633 166.676 25.4843L168.035 24.8896C171.375 49.6346 170.653 81.5114 166.021 113.523C159.43 107.994 151.103 104.951 142.476 104.951C129.988 104.951 118.94 111.228 112.316 120.79C112.263 120.814 109.387 122.642 109.332 122.673C109.332 122.673 109.329 110.273 109.327 110.241L116.66 103.826C121.588 99.514 124.415 93.2855 124.415 86.7374V85.9971C131.767 82.5867 136.454 75.3066 136.454 67.1138C136.454 64.231 135.21 61.6337 133.231 59.8296V48.9413C133.231 48.1867 133.197 47.4092 133.13 46.6299C133.007 45.1928 131.744 44.1269 130.306 44.2502C128.869 44.3728 127.803 45.6371 127.926 47.0745C127.98 47.7065 128.007 48.3347 128.007 48.9417V57.359C127.546 57.2925 127.076 57.2566 126.596 57.2566H121.803C121.128 57.2566 120.528 56.8276 120.309 56.189L114.811 40.1385C115.175 39.4487 115.515 38.7449 115.824 38.0252C116.84 35.6556 117.58 33.1882 118.049 30.6748C119.377 31.5293 120.605 32.5224 121.719 33.6478C122.686 34.6242 123.555 35.6866 124.304 36.8061C124.807 37.5593 125.635 37.9667 126.477 37.9667C126.976 37.9667 127.48 37.8239 127.926 37.5258C129.125 36.7243 129.448 35.1026 128.646 33.9034C127.713 32.5078 126.631 31.1852 125.431 29.9735C123.443 27.9646 121.159 26.2949 118.639 24.9937C118.714 21.5505 118.283 18.0935 117.337 14.7479L114.92 6.20028C128.848 7.28426 142.709 9.2736 156.368 12.1537L155.68 13.7262C155.102 15.0477 155.704 16.5875 157.026 17.1655C157.367 17.3145 157.721 17.3849 158.071 17.3849C159.077 17.3849 160.036 16.7999 160.465 15.8193L162.399 11.397C163.735 8.68895 166.434 7.00709 169.451 7.00709H173.919V11.4771ZM124.415 80.0179V62.4795H126.597C129.152 62.4795 131.231 64.5583 131.231 67.1138C131.231 72.3882 128.639 77.1584 124.415 80.0179Z" stroke="#00E0FF" stroke-width="4" mask="url(#path-1-inside-1_3169_22)"/>
<path d="M27.4735 39.0104L27.4735 39.0104C31.625 56.6069 31.7279 75.2351 27.7705 92.8761L27.4774 94.1826C27.4774 94.1828 27.4774 94.1829 27.4773 94.183C27.3089 94.9318 26.6442 95.4424 25.907 95.4424C25.7902 95.4424 25.6718 95.4298 25.5521 95.4029C24.6836 95.2081 24.1376 94.3464 24.332 93.4779C24.332 93.4777 24.3321 93.4776 24.3321 93.4774L24.6255 92.171L24.6256 92.1707C28.4772 75.0016 28.3775 56.8767 24.3365 39.7504C24.1322 38.8843 24.6687 38.0163 25.5344 37.8119C26.4013 37.6083 27.2694 38.1451 27.4735 39.0104Z" stroke="#00E0FF" stroke-width="2"/>
<path d="M155.375 92.171L155.375 92.1708C151.523 75.0017 151.623 56.8767 155.664 39.7504M155.375 92.171L155.668 93.4779C155.863 94.3463 155.317 95.2078 154.449 95.4029C154.328 95.4297 154.209 95.4424 154.093 95.4424C153.356 95.4424 152.691 94.9315 152.523 94.183C152.523 94.183 152.523 94.1829 152.523 94.1829L152.23 92.8762C148.272 75.2355 148.375 56.6073 152.527 39.0104L152.527 39.0103C152.731 38.1449 153.598 37.6083 154.466 37.8119C155.332 38.0164 155.868 38.8843 155.664 39.7504M155.375 92.171L155.668 93.4774L155.375 92.171ZM155.664 39.7504L156.637 39.9801M155.664 39.7504L156.637 39.9801M156.637 39.9801C156.968 38.5764 156.099 37.1696 154.695 36.8385L156.644 93.2587L156.35 91.9519C152.532 74.9305 152.631 56.9589 156.637 39.9801Z" stroke="#00E0FF" stroke-width="2"/>
<path d="M84.9592 84.919L84.9592 84.9191C84.5551 85.7118 84.8705 86.6824 85.6633 87.0864C87.0196 87.7773 88.5086 88.1237 89.9994 88.1237C91.4902 88.1237 92.9792 87.7776 94.3353 87.0864L94.3354 87.0864C95.1283 86.6824 95.4436 85.7118 95.0395 84.9191L95.0394 84.9188C94.6357 84.1262 93.6654 83.8106 92.8713 84.2148C91.0722 85.1315 88.926 85.1314 87.1269 84.2147L84.9592 84.919ZM84.9592 84.919C85.3633 84.1261 86.3335 83.8109 87.1266 84.2145L84.9592 84.919Z" stroke="#00E0FF" stroke-width="2"/>
<path d="M81.9936 96.9518L81.9934 96.9522C81.5342 97.7145 81.78 98.7048 82.5426 99.164L82.5427 99.164C84.8864 100.575 87.4466 101.276 89.9995 101.276C92.5524 101.276 95.1128 100.575 97.4562 99.1641L97.4563 99.164C98.2187 98.705 98.4645 97.7148 98.0056 96.9522L81.9936 96.9518ZM81.9936 96.9518C82.4521 96.1898 83.4417 95.9436 84.2053 96.4028L81.9936 96.9518ZM84.2057 96.403C87.877 98.614 92.122 98.6139 95.7935 96.4029L84.2057 96.403ZM95.7936 96.4028C96.5561 95.9437 97.5458 96.1893 98.0055 96.952L95.7936 96.4028Z" stroke="#00E0FF" stroke-width="2"/>
<path d="M98.2806 64.8799L98.2807 64.8799C99.6518 64.031 101.459 63.6446 103.195 63.6446C104.93 63.6445 106.738 64.0308 108.109 64.8799L108.11 64.8802C108.375 65.0445 108.667 65.1218 108.955 65.1218C109.498 65.1218 110.023 64.8498 110.328 64.3584L110.328 64.3583C110.796 63.6017 110.563 62.6084 109.806 62.14L109.806 62.1399C107.993 61.0176 105.616 60.4311 103.195 60.4312C100.773 60.4312 98.3964 61.0177 96.5839 62.1398L98.2806 64.8799ZM98.2806 64.8799C97.5243 65.3483 96.531 65.1153 96.062 64.3585L98.2806 64.8799ZM96.0619 64.3583C95.5935 63.6018 95.8271 62.6088 96.5837 62.1399L96.0619 64.3583Z" stroke="#00E0FF" stroke-width="2"/>
<path d="M71.889 64.8804L71.8893 64.8802C73.2605 64.0314 75.068 63.6451 76.8035 63.6451C78.5389 63.6451 80.3464 64.0314 81.7176 64.8802L81.7179 64.8803C82.4745 65.349 83.4679 65.1152 83.9358 64.3589L83.9362 64.3583C84.4049 63.6017 84.1712 62.6084 83.4145 62.14L83.4143 62.1399C81.602 61.0176 79.2251 60.4311 76.8033 60.4312C74.3815 60.4312 72.0045 61.0178 70.1922 62.1399L70.1922 62.1399C69.4358 62.6082 69.2019 63.6015 69.6701 64.3583L71.889 64.8804ZM71.889 64.8804C71.6234 65.0449 71.3317 65.1222 71.043 65.1222C70.5007 65.1222 69.9751 64.8504 69.6703 64.3587L71.889 64.8804Z" stroke="#00E0FF" stroke-width="2"/>
<path d="M73.4037 72.212L73.4035 72.2118C72.6476 71.7436 71.6537 71.977 71.1854 72.7335L71.1851 72.7339C70.7165 73.4902 70.9498 74.4835 71.707 74.9522L71.7072 74.9523C73.126 75.8311 74.9468 76.2914 76.8035 76.2914C78.6607 76.2914 80.4818 75.8311 81.9002 74.9524L81.9003 74.9523C82.6572 74.4836 82.8908 73.4905 82.4221 72.7337L83.2723 72.2072L82.4221 72.7337C81.9538 71.9774 80.9606 71.7439 80.2039 72.2119L73.4037 72.212ZM73.4037 72.212C74.3627 72.8057 75.6241 73.0603 76.804 73.0603M73.4037 72.212L76.804 73.0603M76.804 73.0603C77.9837 73.0603 79.2448 72.8057 80.2035 72.2121L76.804 73.0603Z" stroke="#00E0FF" stroke-width="2"/>
<path d="M97.5767 72.7335L97.5764 72.7339C97.1077 73.4902 97.341 74.4835 98.0982 74.9522L98.0984 74.9523C99.5172 75.8311 101.338 76.2914 103.195 76.2914C105.052 76.2914 106.873 75.8311 108.291 74.9524L108.292 74.9523C109.049 74.4836 109.282 73.4902 108.813 72.7338L108.813 72.7336C108.345 71.9769 107.352 71.7436 106.595 72.212L97.5767 72.7335ZM97.5767 72.7335C98.0449 71.977 99.0385 71.7435 99.7948 72.2119L97.5767 72.7335ZM103.195 73.0603C102.015 73.0603 100.754 72.8057 99.7948 72.2119L103.195 73.0603ZM103.195 73.0603C104.375 73.0603 105.636 72.8057 106.595 72.212L103.195 73.0603Z" stroke="#00E0FF" stroke-width="2"/>
<path d="M141.346 159.286L141.346 159.286C140.702 160.122 139.727 160.633 138.672 160.687C137.622 160.743 136.589 160.327 135.868 159.568L135.868 159.568L123.582 146.631L123.582 146.631C122.21 145.186 122.269 142.897 123.714 141.525L123.714 141.525C124.388 140.885 125.27 140.532 126.199 140.532C126.231 140.532 126.263 140.532 126.296 140.533M141.346 159.286L126.268 141.533M141.346 159.286L161.301 133.412C161.301 133.412 161.301 133.412 161.301 133.412C161.888 132.65 162.146 131.699 162.023 130.745C161.9 129.79 161.409 128.935 160.646 128.347L160.646 128.347C159.068 127.131 156.798 127.424 155.581 129.001L155.581 129.002L139.351 150.046M141.346 159.286L140.143 150.657M126.296 140.533C126.297 140.533 126.297 140.533 126.298 140.533L126.268 141.533M126.296 140.533C126.295 140.533 126.294 140.533 126.293 140.533L126.268 141.533M126.296 140.533C127.258 140.559 128.157 140.959 128.819 141.657L128.819 141.657L136.906 150.172M126.268 141.533C126.965 141.551 127.614 141.839 128.094 142.345L136.181 150.861M136.906 150.172L136.181 150.861M136.906 150.172L136.906 150.172L136.181 150.861M136.906 150.172C137.231 150.514 137.686 150.696 138.157 150.672L138.158 150.672C138.627 150.648 139.063 150.419 139.351 150.046M136.181 150.861C136.706 151.414 137.445 151.71 138.209 151.671C138.971 151.632 139.677 151.261 140.143 150.657M139.351 150.046L139.351 150.047L140.143 150.657M139.351 150.046L140.143 150.657M162.615 125.794L162.615 125.794C164.062 126.91 164.986 128.518 165.219 130.33L165.219 130.331C165.454 132.143 164.969 133.933 163.853 135.38L163.853 135.381L143.899 161.254L144.691 161.865L143.899 161.254C142.679 162.837 140.835 163.803 138.838 163.906C138.72 163.912 138.602 163.915 138.486 163.915C136.623 163.915 134.815 163.139 133.531 161.787L121.245 148.85C118.65 146.117 118.763 141.782 121.495 139.187L121.495 139.187C122.821 137.927 124.546 137.259 126.374 137.311L126.377 137.311C128.204 137.358 129.898 138.112 131.157 139.437L137.144 145.741L137.948 146.588L138.661 145.663L153.028 127.033C153.029 127.033 153.029 127.033 153.029 127.033C155.331 124.049 159.632 123.494 162.615 125.794Z" stroke="#00E0FF" stroke-width="2"/>
</svg>
