<svg width="300" height="300" viewBox="0 0 300 300" fill="none" xmlns="http://www.w3.org/2000/svg">
<g clip-path="url(#clip0_3291_2004)">
<path d="M148.674 48.8268L148.676 48.8285C149.376 49.5005 149.768 50.4248 149.768 51.393V136.492C149.768 138.456 148.178 140.05 146.211 140.05H50.1446C49.102 140.05 48.1138 139.594 47.4384 138.798L47.0571 139.121L47.4384 138.798C46.7612 138 46.4667 136.954 46.6337 135.923L46.6338 135.923C47.7621 128.92 49.6112 122.014 52.1321 115.389L58.7662 117.95C56.9942 122.621 55.5782 127.438 54.5403 132.331L54.4123 132.935H55.0294H142.153H142.653V132.435V55.7057V55.1627L142.112 55.2074C137.097 55.6218 132.123 56.418 127.264 57.5889L125.56 50.6807C132.253 49.0649 139.152 48.1115 146.072 47.8395L146.075 47.8393C147.029 47.7968 147.982 48.1559 148.674 48.8268Z" stroke="#00E0FF"/>
<path d="M228.862 94.398L234.553 90.1256C248.097 108.327 255.255 129.956 255.255 152.721C255.255 155.302 255.138 158.048 254.892 161.12M228.862 94.398L254.892 161.12C254.892 161.12 254.892 161.12 254.892 161.12M228.862 94.398C241.476 111.357 248.141 131.513 248.141 152.721C248.141 154.024 248.108 155.374 248.043 156.801L248.021 157.278H247.543H166.497H165.997V156.778V56.7241V56.1331L166.58 56.231C172.895 57.2922 179.09 58.9692 185.06 61.2395L187.625 54.6055C179.678 51.5787 171.351 49.5278 162.868 48.5139C161.838 48.3929 160.844 48.7126 160.081 49.3862L160.08 49.3869L160.08 49.3869C159.317 50.0579 158.883 51.0241 158.883 52.0462V160.835C158.883 162.799 160.473 164.393 162.44 164.393H251.345C253.198 164.393 254.742 162.966 254.892 161.12M228.862 94.398L254.892 161.12" stroke="#00E0FF"/>
<path d="M53.565 167.895L46.5394 169.026C45.7032 163.675 45.2812 158.194 45.2812 152.721C45.2812 150.757 46.8713 149.164 48.8384 149.164H146.211C148.178 149.164 149.768 150.757 149.768 152.721V254.049C149.768 255.017 149.377 255.941 148.673 256.613L148.672 256.614C148.01 257.251 147.125 257.607 146.207 257.607C146.192 257.607 146.175 257.606 146.147 257.605L146.143 257.605C146.121 257.604 146.091 257.603 146.059 257.602C136.195 257.217 126.484 255.453 117.179 252.367L119.452 245.622C126.781 248.051 134.381 249.596 142.112 250.235L142.654 250.28V249.737V156.778V156.278H142.154H52.9808H52.46L52.4812 156.799C52.6334 160.529 52.9946 164.244 53.565 167.895Z" stroke="#00E0FF"/>
<path d="M251.53 174.871L251.532 174.874C252.208 175.735 252.449 176.858 252.186 177.917L252.186 177.919C251.543 180.553 250.77 183.217 249.898 185.843L243.157 183.57C243.41 182.805 243.654 182.037 243.888 181.266L244.083 180.621H243.409H166.493H165.993V181.121V248.718V249.308L166.576 249.211C168.825 248.835 171.064 248.377 173.272 247.845L174.976 254.753C170.995 255.712 166.922 256.443 162.863 256.928L162.861 256.928C162.723 256.946 162.581 256.953 162.44 256.953C161.575 256.953 160.736 256.64 160.078 256.056C159.317 255.381 158.883 254.413 158.883 253.396V177.064C158.883 175.1 160.473 173.507 162.44 173.507H248.74C249.832 173.507 250.863 174.008 251.53 174.871Z" stroke="#00E0FF"/>
<path d="M120.861 66.4178H120.867C128.924 72.5326 133.539 81.7938 133.539 91.8634C133.539 101.178 129.469 110.014 122.378 116.103L122.364 116.115L122.356 116.123C116.561 121.085 109.181 123.821 101.582 123.821C99.3201 123.821 97.0005 123.564 94.6943 123.058C94.6881 123.056 94.6817 123.054 94.6753 123.053C94.6626 123.049 94.6498 123.046 94.6371 123.043C86.9242 121.332 80.1287 116.799 75.5644 110.41L75.3589 110.123L75.0191 110.22C71.8516 111.134 68.5185 111.649 65.0674 111.649C45.2078 111.649 29.0527 95.4903 29.0527 75.6347C29.0527 55.7791 45.2078 39.6201 65.0674 39.6201C66.7169 39.6201 68.3321 39.7715 69.9421 39.9888L70.2323 40.028L70.4085 39.7941C71.2037 38.7378 72.0565 37.693 73.0156 36.666C77.0534 32.3437 82.1166 28.9187 87.6911 26.7472L90.192 33.407C85.684 35.1803 81.5901 37.9485 78.3073 41.4305L77.8052 41.9631L78.4839 42.2371C86.7586 45.5782 93.4982 51.9051 97.4003 59.8773L97.5572 60.1978L97.9112 60.1537C99.1657 59.9974 100.386 59.906 101.582 59.906C108.52 59.906 115.138 62.1221 120.728 66.3177L120.861 66.4178ZM121.018 66.4178H121.028C121.032 66.4178 121.028 66.418 121.018 66.4178ZM65.8439 47.4558L66.1611 46.7507H65.3879C65.3553 46.7507 65.3214 46.7483 65.266 46.744C65.2159 46.7402 65.1444 46.7344 65.0674 46.7344C49.1346 46.7344 36.1671 59.6978 36.1671 75.6347C36.1671 91.5716 49.1346 104.535 65.0674 104.535C78.7477 104.535 90.2071 94.9721 93.1918 82.1871L93.1919 82.1866C93.7071 79.9692 93.9676 77.7647 93.9676 75.6347C93.9676 74.7148 93.9138 73.8063 93.8316 72.919L93.8313 72.9157C93.7829 72.4277 93.7079 71.9434 93.6355 71.4752C93.6265 71.4174 93.6177 71.3599 93.6088 71.3027L93.6087 71.3017C93.5936 71.2049 93.5787 71.1029 93.5633 70.9981C93.5322 70.7856 93.4994 70.5619 93.4606 70.348L93.4595 70.3426C93.3194 69.6175 93.1508 68.9018 92.9581 68.1876C92.9346 68.0895 92.9086 67.9816 92.878 67.8724L92.8779 67.8718C92.6547 67.0785 92.3947 66.2903 92.1022 65.5074L92.1018 65.5065C89.0139 57.2914 82.3142 50.8427 73.9195 48.134L73.5222 48.0058L73.3252 48.3738C71.509 51.766 70.5304 55.0264 70.0124 57.6363L63.0146 56.3591C63.5122 53.8059 64.3724 50.7261 65.8439 47.4558ZM92.2281 114.868L92.7766 115.092L92.9049 114.514L97.6518 93.1403L96.7246 92.7929C93.4796 98.7547 88.5893 103.685 82.6776 107.015L82.1528 107.311L82.54 107.773C85.1508 110.884 88.4667 113.335 92.2281 114.868ZM125.588 88.3063H126.178L126.082 87.7243C125.27 82.8408 123.016 78.3593 119.58 74.7696L119.172 74.344L118.819 74.8153L109.296 87.5062L108.696 88.3063H109.696H125.588ZM113.127 70.5387L113.481 70.0668L112.957 69.7949C109.179 67.8335 105.072 66.8464 100.631 67.0411L100.019 67.0679L100.168 67.6619C100.169 67.6662 100.17 67.6709 100.174 67.7005L100.177 67.7202L100.181 67.7397C100.433 68.859 100.629 69.9992 100.773 71.1565L100.774 71.158C100.787 71.2652 100.806 71.3708 100.821 71.4609C100.836 71.5552 100.849 71.6365 100.858 71.7156L100.858 71.7168C100.998 73.0086 101.082 74.3129 101.082 75.6347C101.082 76.7406 101.022 77.86 100.91 78.9808L100.91 78.9855C100.81 80.0858 100.646 81.1692 100.445 82.2455L100.437 82.2909V82.3372V82.3412V82.4706L100.5 82.5838L101.652 84.661L102.026 85.3357L102.489 84.7186L109.581 75.2653L113.127 70.5387ZM99.8483 116.066L99.7201 116.643L100.311 116.673C105.297 116.93 110.162 115.675 114.368 113.146L114.875 112.841L114.49 112.392L104.161 100.342L103.51 99.5829L103.293 100.559L99.8483 116.066ZM119.89 107.756L120.274 108.205L120.653 107.751C123.473 104.377 125.344 100.324 126.077 96.0043L126.176 95.4206H125.584H110.406H109.319L110.027 96.246L119.89 107.756Z" stroke="#00E0FF"/>
<path d="M179.168 111.65V104.535H186.282V111.65H179.168Z" stroke="#00E0FF"/>
<path d="M195.396 119.764V112.649H202.511V119.764H195.396Z" stroke="#00E0FF"/>
<path d="M211.625 148.164V141.05H218.739V148.164H211.625Z" stroke="#00E0FF"/>
<path d="M179.168 144.107V136.993H186.282V144.107H179.168Z" stroke="#00E0FF"/>
<path d="M175.111 127.878V120.764H182.226V127.878H175.111Z" stroke="#00E0FF"/>
<path d="M231.912 131.935V124.821H239.026V131.935H231.912Z" stroke="#00E0FF"/>
<path d="M211.625 115.707V108.592H218.739V115.707H211.625Z" stroke="#00E0FF"/>
<path d="M195.396 135.992V128.878H202.511V135.992H195.396Z" stroke="#00E0FF"/>
<path d="M211.625 131.935V124.821H218.739V131.935H211.625Z" stroke="#00E0FF"/>
<path d="M210.628 103.535H203.514C203.569 95.6882 204.927 88.1094 207.28 80.9681L207.477 80.3692L206.849 80.3136C203.62 80.0278 200.349 78.5743 197.742 75.9745C195.205 73.4373 194.486 69.7055 194.498 66.2761C194.511 62.8613 195.249 59.8511 195.517 58.8695C195.877 57.5733 196.931 56.5883 198.247 56.3216L198.248 56.3213C198.788 56.2102 201.519 55.7032 204.764 55.8815C208.021 56.0604 211.705 56.9244 214.25 59.4674C214.931 60.1493 215.504 60.9151 216.058 61.7185L216.468 62.313L216.88 61.7198C219.092 58.5353 221.486 55.5092 224.122 52.7399L224.517 52.3252L224.053 51.9899C223.362 51.4906 222.696 50.9643 222.085 50.3573C219.468 47.7407 218.807 43.9888 218.872 40.669C218.937 37.3622 219.721 34.5866 219.886 34.0341C220.231 32.8935 221.127 32.0005 222.269 31.655C222.824 31.4896 225.601 30.7071 228.907 30.6424C232.227 30.5775 235.978 31.2378 238.593 33.8504L210.628 103.535ZM210.628 103.535C210.676 97.8299 211.545 92.266 213.013 86.9192L213.183 86.3008L213.742 86.6163C215.908 87.8409 218.481 88.5761 221.269 88.5761C224.949 88.5761 228.102 86.4031 230.445 84.0221C232.779 81.6506 234.235 79.1463 234.517 78.6409L210.628 103.535ZM271.484 31.5078V38.6225C265.255 38.6834 259.189 39.8806 253.438 41.9689L252.623 42.2649L253.288 42.822C256.476 45.4938 258.521 48.9438 258.86 49.5506C259.462 50.6331 259.461 51.9502 258.86 53.0278C258.579 53.5329 257.122 56.0374 254.788 58.4092C252.445 60.7901 249.292 62.9631 245.612 62.9631C239.766 62.9631 234.831 59.8183 232.853 55.4743L232.563 54.8383L232.055 55.3176C228.989 58.2076 226.186 61.3955 223.677 64.8403L223.255 65.4191L223.944 65.6155C226.919 66.4642 229.432 68.6017 231.283 70.6825C233.127 72.7554 234.271 74.724 234.517 75.1644C235.119 76.2468 235.118 77.5634 234.517 78.6408L271.484 31.5078ZM271.484 31.5078C261.181 31.593 251.365 34.3081 242.509 38.9304L242.034 39.1778L241.819 38.6882C241.048 36.9314 240.005 35.2626 238.593 33.8505L271.484 31.5078ZM211.563 70.559L211.611 70.4657L211.617 70.3613C211.621 70.2888 211.615 70.2217 211.613 70.1903L211.612 70.1845C211.61 70.1672 211.61 70.1577 211.609 70.153C211.609 70.1525 211.609 70.1521 211.609 70.1517C211.764 68.2486 210.821 66.0981 209.22 64.4971C208.518 63.7955 207.388 63.4028 206.193 63.1895C204.979 62.9727 203.608 62.926 202.336 62.9839L201.92 63.0029L201.863 63.4155C201.667 64.8459 201.584 66.3869 201.692 67.721C201.746 68.388 201.849 69.0168 202.017 69.5599C202.183 70.0977 202.423 70.5882 202.776 70.9411C205.059 73.2239 207.96 73.7562 209.734 72.9541L209.738 72.9522C209.88 72.8864 210.029 72.8478 210.228 72.7964C210.264 72.7871 210.301 72.7774 210.34 72.767L210.565 72.7079L210.665 72.498C210.8 72.2142 210.92 71.9444 211.038 71.6809C211.208 71.3017 211.372 70.9354 211.563 70.559ZM226.949 77.2082L227.181 76.9046L226.949 76.601C226.143 75.5471 225.188 74.5016 224.222 73.714C223.278 72.9448 222.235 72.3474 221.269 72.3474C220.412 72.3474 219.596 72.4954 218.829 72.7255L218.629 72.7854L218.531 72.9693C217.502 74.9009 216.554 76.8789 215.708 78.9113L215.577 79.226L215.822 79.463C217.034 80.6356 219.071 81.4618 221.269 81.4618C222.233 81.4618 223.276 80.8642 224.22 80.0952C225.187 79.3077 226.143 78.2622 226.949 77.2082ZM229.825 47.1001L230.104 47.2151L230.335 47.023C232.008 45.6363 233.732 44.3271 235.516 43.1071L235.809 42.9068L235.717 42.5641C235.365 41.2633 234.64 39.9568 233.563 38.8801C232.854 38.1709 231.66 37.8826 230.455 37.7888C229.219 37.6927 227.838 37.7923 226.624 37.9722L226.259 38.0264L226.203 38.3914C226.006 39.6808 225.922 41.0756 226.032 42.3008C226.139 43.496 226.439 44.6475 227.118 45.3272C227.984 46.1975 228.918 46.7251 229.825 47.1001ZM239.025 51.4407L239.018 51.4825L239.018 51.525C239.023 52.7375 239.903 53.8259 241.083 54.5812C242.283 55.3495 243.899 55.8488 245.612 55.8488C246.576 55.8488 247.619 55.2512 248.563 54.4822C249.53 53.6947 250.486 52.6492 251.292 51.5952L251.524 51.2916L251.292 50.988C250.486 49.9341 249.531 48.8886 248.565 48.101C247.621 47.3318 246.578 46.7344 245.612 46.7344C244.309 46.7344 243.099 47.0788 242.015 47.604L241.989 47.6164L241.965 47.6317C241.051 48.2107 240.144 48.8075 239.251 49.4339L238.988 49.6185L239.047 49.9344C239.113 50.2913 239.136 50.6407 239.095 50.9845L239.094 50.9889C239.088 51.0454 239.038 51.3631 239.025 51.4407Z" stroke="#00E0FF"/>
<path d="M110.419 213.687L110.418 213.687C109.373 213.47 108.281 213.737 107.452 214.412C106.622 215.089 106.139 216.1 106.139 217.169V221.36V221.402L106.132 221.443L102.132 245.453L101.639 245.371L102.132 245.453C102.1 245.648 102.082 245.843 102.082 246.036V266.322V266.822H101.582H76.6182H76.1945L76.125 266.404L72.6363 245.452C72.6362 245.452 72.6361 245.451 72.636 245.45C72.5747 245.098 72.4674 244.76 72.3085 244.442L60.1375 220.1C60.1374 220.1 60.1373 220.1 60.1372 220.099C59.532 218.897 58.301 218.136 56.953 218.136H56.1416C54.9779 218.136 53.8862 218.705 53.2254 219.657L53.2245 219.659C52.5561 220.615 52.403 221.835 52.805 222.924L52.8053 222.925C53.1988 223.996 53.3958 224.901 53.3958 225.75C53.3958 230.501 49.5327 234.365 44.7815 234.365C40.0302 234.365 36.1671 230.501 36.1671 225.75C36.1671 222.179 38.4377 218.947 41.8161 217.703C42.9765 217.272 43.8304 216.276 44.0762 215.059C44.3179 213.846 43.9122 212.594 43.0056 211.755L43.0056 211.755C41.2138 210.096 40.2243 207.859 40.2243 205.464C40.2243 200.713 44.0874 196.85 48.8386 196.85C49.723 196.85 50.6375 197.036 51.6896 197.415L110.419 213.687ZM110.419 213.687C111.719 213.955 112.752 214.079 113.754 214.079C117.141 214.079 120.282 213.126 122.591 211.587C124.892 210.053 126.425 207.888 126.425 205.464C126.425 203.151 125.004 201.065 122.843 199.549C120.675 198.03 117.708 197.038 114.459 196.911L114.458 196.911C113.076 196.858 111.848 196.005 111.314 194.728C110.784 193.45 111.037 191.981 111.972 190.956C113.441 189.35 114.254 187.3 114.254 185.178C114.254 180.427 110.39 176.564 105.639 176.564C102.068 176.564 98.8393 178.835 97.5953 182.21L97.5952 182.21C97.1683 183.37 96.1686 184.227 94.9562 184.469L94.9546 184.469C93.7469 184.714 92.491 184.31 91.6474 183.402C89.2214 180.787 85.4634 179.892 82.1129 181.263L82.1126 181.263C80.7689 181.814 79.222 181.487 78.2158 180.442L78.2152 180.441M110.419 213.687L78.2152 180.441M78.2152 180.441C75.8012 177.943 72.5681 176.564 69.1245 176.564C62.1378 176.564 56.453 182.249 56.453 189.236V194.068C56.453 195.228 55.8911 196.312 54.9425 196.976M78.2152 180.441L54.9425 196.976M54.9425 196.976C53.9871 197.643 52.7773 197.806 51.6898 197.415L54.9425 196.976ZM120.535 190.181L120.366 190.67L120.862 190.822C128.376 193.111 133.539 198.867 133.539 205.464C133.539 214.04 124.773 221.193 113.754 221.193H113.254V221.693C113.254 221.886 113.236 222.081 113.203 222.281C113.203 222.281 113.203 222.282 113.203 222.282L109.203 246.291L109.196 246.332V246.373V270.379C109.196 272.343 107.606 273.936 105.639 273.936H73.1817C71.4426 273.936 69.9592 272.677 69.6746 270.963L69.6745 270.962L65.7147 247.22L65.7024 247.146L65.6688 247.078L59.1002 233.941L58.6958 233.132L58.2258 233.905C55.4644 238.444 50.4661 241.479 44.7815 241.479C36.1075 241.479 29.0527 234.424 29.0527 225.75C29.0527 220.964 31.2733 216.508 34.8887 213.573L35.2124 213.311L35.0121 212.945C33.7705 210.678 33.1099 208.127 33.1099 205.464C33.1099 196.79 40.1646 189.736 48.8386 189.736H49.3386V189.236C49.3386 178.326 58.215 169.45 69.1245 169.45C73.6722 169.45 77.9756 170.977 81.4731 173.798L81.6618 173.95L81.8981 173.896C85.5869 173.055 89.5278 173.629 92.8225 175.426L93.1883 175.625L93.4505 175.301C96.3853 171.678 100.849 169.45 105.639 169.45C114.313 169.45 121.368 176.504 121.368 185.178C121.368 186.896 121.085 188.582 120.535 190.181Z" stroke="#00E0FF"/>
<path d="M215.682 259.68V259.888V260.237C215.682 263.868 212.728 266.822 209.096 266.822C205.465 266.822 202.511 263.868 202.511 260.237V258.208C202.511 256.244 200.92 254.651 198.953 254.651H196.925C193.293 254.651 190.339 251.696 190.339 248.065C190.339 244.434 193.293 241.479 196.925 241.479H197.274H197.481L197.627 241.626L199.988 243.987L199.989 243.987C201.14 245.142 202.929 245.361 204.336 244.52L214.296 238.544L214.631 238.343L214.907 238.619L216.724 240.437L218.542 242.255L218.818 242.531L218.617 242.865L212.641 252.825L215.682 259.68ZM215.682 259.68L215.536 259.534M215.682 259.68L215.536 259.534M215.536 259.534L213.175 257.173M215.536 259.534L213.175 257.173M213.175 257.173L213.174 257.173C212.022 256.016 211.802 254.227 212.641 252.826L213.175 257.173ZM211.605 231.863L211.821 231.734L211.846 231.484L213.598 213.945C213.598 213.945 213.598 213.945 213.598 213.945C214.981 200.143 226.479 189.736 240.349 189.736H244.601C259.425 189.736 271.483 201.797 271.483 216.622C271.483 230.616 260.973 242.125 247.034 243.392L247.08 243.89L247.034 243.392L225.669 245.336L225.416 245.359L225.286 245.576L220.368 253.772L220.168 254.107L220.444 254.383L221.754 255.693L221.755 255.694C222.423 256.358 222.796 257.265 222.796 258.208V260.237C222.796 267.791 216.651 273.937 209.096 273.937C202.165 273.937 196.418 268.762 195.517 262.073L195.467 261.695L195.089 261.644C188.399 260.744 183.225 254.996 183.225 248.065C183.225 240.511 189.371 234.365 196.925 234.365H198.953C199.9 234.365 200.803 234.738 201.467 235.406L201.468 235.407L202.779 236.718L203.055 236.994L203.389 236.793L211.605 231.863ZM224.468 238.117L224.634 238.283L224.867 238.262L246.391 236.306C256.641 235.374 264.368 226.91 264.368 216.622C264.368 205.72 255.499 196.85 244.601 196.85H240.349C230.152 196.85 221.697 204.502 220.681 214.649C220.681 214.649 220.681 214.649 220.681 214.649L218.912 232.302L218.889 232.537L219.056 232.705L224.468 238.117Z" stroke="#00E0FF"/>
<path d="M63.7949 67.2152L63.7953 67.2154C67.758 68.9508 72.508 67.8147 75.5324 64.5089L80.9957 69.0718C77.5304 72.9917 72.6059 75.1264 67.6595 75.1264C65.3767 75.1264 63.0882 74.673 60.9348 73.7282C55.1657 71.1948 51.1914 65.4375 50.722 58.9577L57.8339 58.6409C58.1769 62.4156 60.4635 65.7528 63.7949 67.2152Z" stroke="#00E0FF"/>
<path d="M233.355 208.561L233.355 208.561C237.847 205.246 244.151 205.098 249.178 208.189L245.254 214.133C242.757 212.696 239.735 212.701 237.581 214.288C236.337 215.204 235.689 216.465 235.351 217.515C235.143 218.159 235.048 218.737 235.004 219.132L227.876 218.947C228.091 215.627 229.631 211.308 233.355 208.561Z" stroke="#00E0FF"/>
<path d="M83.3092 213.638L83.8333 214.156L84.1208 213.478C87.1551 206.319 93.0363 202.081 101.081 201.912V209.029C98.4793 209.111 96.4043 209.828 94.7606 210.959C93.0169 212.16 91.7881 213.806 90.9252 215.588C89.2061 219.137 88.9095 223.285 88.9095 225.75V241.479H81.7951V225.75C81.7951 222.377 79.3509 219.203 76.1273 216.907C73.0343 214.703 69.1053 213.218 65.5664 213.088V205.97C71.8603 206.119 78.6728 209.06 83.3092 213.638Z" stroke="#00E0FF"/>
</g>
<defs>
<clipPath id="clip0_3291_2004">
<rect width="248.336" height="248.336" fill="white" transform="translate(26.0996 26.1006)"/>
</clipPath>
</defs>
</svg>
