<svg width="300" height="300" viewBox="0 0 300 300" fill="none" xmlns="http://www.w3.org/2000/svg">
<path d="M218.866 214.25L218.865 214.25C217.352 213.702 215.681 214.489 215.134 216.005L218.866 214.25ZM218.866 214.25C220.381 214.797 221.167 216.468 220.62 217.983C220.085 219.464 219.512 220.93 218.901 222.371C218.428 223.479 217.35 224.147 216.214 224.147C215.834 224.147 215.447 224.073 215.074 223.915M218.866 214.25L215.074 223.915M215.074 223.915C213.594 223.284 212.903 221.572 213.531 220.089L215.074 223.915ZM213.531 220.089C214.102 218.747 214.637 217.383 215.134 216.005L213.531 220.089Z" stroke="#00E0FF"/>
<path d="M216.866 167.901L216.866 167.901C217.132 169.297 218.354 170.272 219.727 170.272C219.906 170.272 220.091 170.255 220.276 170.22C221.857 169.92 222.896 168.394 222.596 166.81C221.966 163.494 221.234 160.127 220.42 156.808L220.419 156.808C220.037 155.245 218.46 154.289 216.892 154.671C215.328 155.054 214.371 156.633 214.755 158.198L216.866 167.901ZM216.866 167.901C216.255 164.683 215.544 161.418 214.755 158.198L216.866 167.901ZM221.996 200.26L221.992 200.26C220.387 200.106 219.212 198.682 219.366 197.08L219.366 197.08C219.605 194.576 219.726 192.027 219.726 189.502C219.726 188.789 219.715 188.08 219.695 187.372L219.695 187.371C219.645 185.764 220.908 184.422 222.514 184.371C224.194 184.372 225.476 185.627 225.523 187.197L225.523 187.198C225.547 187.962 225.558 188.728 225.558 189.502C225.558 192.211 225.428 194.948 225.171 197.634L225.171 197.634C225.027 199.144 223.757 200.274 222.273 200.274C222.178 200.274 222.086 200.27 221.996 200.26Z" stroke="#00E0FF"/>
<path d="M212.884 132.867L212.884 132.866C212.306 131.362 210.613 130.621 209.115 131.19C207.611 131.77 206.862 133.455 207.439 134.958L212.884 132.867ZM212.884 132.867C213.432 134.291 213.969 135.731 214.492 137.188L212.884 132.867ZM209.002 139.158C209.431 140.349 210.55 141.089 211.747 141.089C212.072 141.089 212.407 141.034 212.733 140.919C214.249 140.374 215.035 138.703 214.492 137.188L209.002 139.158ZM209.002 139.158C208.493 137.742 207.971 136.344 207.439 134.958L209.002 139.158Z" stroke="#00E0FF"/>
<path d="M63.9524 169.641L63.9563 169.625L63.9591 169.609C78.0688 88.3011 141.195 41.2549 141.809 40.8053L141.809 40.8051C142.834 40.0532 144.229 40.0532 145.254 40.8051L145.254 40.8053C145.823 41.222 159.851 51.5971 176.242 71.2198C176.863 71.9645 177.073 72.9666 176.806 73.897C175.957 76.8441 175.368 79.3303 174.953 81.7181C174.327 84.3468 174.029 86.7406 174.029 89.0493C174.029 105.46 187.174 118.822 203.348 118.822C203.605 118.822 203.86 118.804 204.094 118.788C204.134 118.786 204.173 118.783 204.212 118.781C204.212 118.781 204.212 118.781 204.212 118.781L204.819 118.743C204.819 118.743 204.82 118.743 204.821 118.743C205.985 118.684 207.108 119.352 207.608 120.429C209.501 124.513 211.276 128.698 212.882 132.866L212.882 132.866C213.461 134.368 212.713 136.055 211.209 136.634L211.209 136.634C209.716 137.211 208.02 136.465 207.441 134.962L207.441 134.961C206.15 131.612 204.745 128.252 203.258 124.944L203.127 124.654L202.809 124.649C183.681 124.357 168.196 108.504 168.196 89.0488C168.196 86.2824 168.548 83.4214 169.243 80.548L169.247 80.5315L169.25 80.5147C169.578 78.5897 170.054 76.4635 170.709 74.0402L170.778 73.7866L170.608 73.5863C158.742 59.6049 148.151 50.5629 143.847 47.101L143.533 46.8484L143.22 47.1016C132.452 55.7974 81.9845 99.8714 69.6605 170.81C68.0999 177.285 67.3305 183.502 67.3305 189.502C67.3305 232.125 101.506 266.813 143.529 266.813C173.991 266.813 201.465 248.469 213.529 220.089C214.159 218.61 215.872 217.919 217.356 218.546C218.837 219.176 219.527 220.888 218.899 222.371C205.914 252.915 176.329 272.646 143.53 272.646C98.3053 272.646 61.5 235.356 61.5 189.504C61.5 183.041 62.324 176.357 63.9524 169.641Z" stroke="#00E0FF"/>
<path d="M143.53 246.129C112.979 246.129 88.123 221.274 88.123 190.72C88.123 160.169 112.979 135.313 143.53 135.313C174.083 135.313 198.939 160.17 198.939 190.72C198.939 221.274 174.083 246.129 143.53 246.129ZM143.53 141.146C116.194 141.146 93.9547 163.385 93.9547 190.72C93.9547 218.058 116.194 240.297 143.53 240.297C170.868 240.297 193.107 218.058 193.107 190.72C193.107 163.385 170.868 141.146 143.53 141.146Z" stroke="#00E0FF"/>
<path d="M132.378 202.374V201.874H131.878H113.024C111.414 201.874 110.107 200.567 110.107 198.958V182.489C110.107 180.879 111.414 179.573 113.024 179.573H131.878H132.378V179.073V160.218C132.378 158.608 133.685 157.302 135.295 157.302H151.763C153.373 157.302 154.679 158.608 154.679 160.218V179.073V179.573H155.179H174.034C175.644 179.573 176.95 180.879 176.95 182.489V198.958C176.95 200.567 175.644 201.874 174.034 201.874H155.179H154.679V202.374V221.229C154.679 222.838 153.373 224.145 151.763 224.145H135.295C133.685 224.145 132.378 222.838 132.378 221.229V202.374ZM138.211 217.812V218.312H138.711H148.347H148.847V217.812V198.957C148.847 197.347 150.153 196.041 151.763 196.041H170.619H171.119V195.541V185.904V185.404H170.619H151.763C150.153 185.404 148.847 184.098 148.847 182.488V163.633V163.133H148.347H138.711H138.211V163.633V182.488C138.211 184.098 136.904 185.404 135.295 185.404H116.44H115.94V185.904V195.541V196.041H116.44H135.295C136.904 196.041 138.211 197.347 138.211 198.957V217.812Z" stroke="#00E0FF"/>
<path d="M116.362 97.3658L116.362 97.3659C115.471 98.7081 115.837 100.517 117.18 101.408C117.676 101.736 118.235 101.894 118.789 101.894C119.734 101.894 120.659 101.436 121.221 100.589C125.584 94.0112 129.901 88.3712 134.05 83.8267M116.362 97.3658L134.419 84.1638M116.362 97.3658C120.897 90.5277 125.4 84.6485 129.745 79.8926M116.362 97.3658L129.745 79.8926M134.05 83.8267L134.419 84.1638M134.05 83.8267C134.05 83.8267 134.05 83.8268 134.05 83.8269L134.419 84.1638M134.05 83.8267C135.136 82.6355 135.052 80.7926 133.865 79.707M134.419 84.1638C135.691 82.7688 135.594 80.6093 134.201 79.3373M133.865 79.707L134.201 79.3373M133.865 79.707C132.673 78.6221 130.832 78.7027 129.745 79.8926M133.865 79.707C133.865 79.7068 133.864 79.7066 133.864 79.7065L134.201 79.3373M134.201 79.3373L129.745 79.8926" stroke="#00E0FF"/>
<path d="M169.244 80.548L169.248 80.5322L169.251 80.516C175.092 46.8348 200.565 27.8416 201.626 27.0641L201.627 27.0639C202.652 26.312 204.045 26.3121 205.069 27.0638L205.07 27.0646C206.13 27.8382 231.553 46.7916 237.474 80.6255L237.477 80.6407L237.48 80.6556C238.159 83.4934 238.501 86.3146 238.501 89.0483C238.501 108.686 222.727 124.653 203.348 124.653C183.972 124.653 168.197 108.686 168.197 89.0488C168.197 86.2824 168.55 83.4214 169.244 80.548ZM203.678 33.4361L203.352 33.157L203.027 33.4366C197.028 38.5933 179.495 55.6036 174.953 81.7181C174.327 84.3468 174.029 86.7406 174.029 89.0494C174.029 105.46 187.174 118.822 203.348 118.822C219.524 118.822 232.669 105.46 232.669 89.0494C232.669 86.7383 232.37 84.3394 231.786 81.9197L231.785 81.9167C231.77 81.855 231.758 81.7979 231.75 81.7452L231.75 81.7452L231.748 81.7334C227.197 55.5307 209.682 38.579 203.678 33.4361Z" stroke="#00E0FF"/>
</svg>
